solid overhang_flange
  facet normal 0.0 0.866025 -0.5
    outer loop
      vertex 0.0 0.0 5.0
      vertex 5.0 10.0 22.32
      vertex 10.0 0.0 5.0
    endloop
  endfacet
  facet normal 0.0 -0.980581 0.196116
    outer loop
      vertex 0.0 0.0 5.0
      vertex 10.0 0.0 5.0
      vertex 5.0 5.0 30.0
    endloop
  endfacet
  facet normal 0.962858 0.226277 0.147316
    outer loop
      vertex 10.0 0.0 5.0
      vertex 5.0 10.0 22.32
      vertex 5.0 5.0 30.0
    endloop
  endfacet
  facet normal -0.962858 0.226277 0.147316
    outer loop
      vertex 5.0 10.0 22.32
      vertex 0.0 0.0 5.0
      vertex 5.0 5.0 30.0
    endloop
  endfacet
endsolid overhang_flange
